<svg width="206" height="100" viewBox="0 0 206 100" fill="none" xmlns="http://www.w3.org/2000/svg">
<mask id="path-1-inside-1_303_3473" fill="white">
<path d="M154.782 12.3333C154.776 10.409 157.225 9.58612 158.381 11.1243L205.094 73.2659C206.085 74.5841 205.143 76.4681 203.494 76.4681H156.993C156.956 76.4681 156.919 76.4642 156.882 76.4622H0V22.4622H154.816L154.782 12.3333Z"/>
</mask>
<path d="M154.782 12.3333C154.776 10.409 157.225 9.58612 158.381 11.1243L205.094 73.2659C206.085 74.5841 205.143 76.4681 203.494 76.4681H156.993C156.956 76.4681 156.919 76.4642 156.882 76.4622H0V22.4622H154.816L154.782 12.3333Z" fill="white"/>
<path d="M154.782 12.3333L156.782 12.3265V12.3265L154.782 12.3333ZM158.381 11.1243L159.98 9.92255L159.98 9.92253L158.381 11.1243ZM205.094 73.2659L206.692 72.0642L206.692 72.0642L205.094 73.2659ZM203.494 76.4681V74.4681V76.4681ZM156.993 76.4681V78.4681V76.4681ZM156.882 76.4622L156.992 74.4652L156.937 74.4622H156.882V76.4622ZM0 76.4622H-2V78.4622H0V76.4622ZM0 22.4622V20.4622H-2V22.4622H0ZM154.816 22.4622V24.4622H156.823L156.816 22.4554L154.816 22.4622ZM154.782 12.3333L156.782 12.3265C156.782 12.3127 156.783 12.3049 156.784 12.3024C156.784 12.2999 156.784 12.3007 156.783 12.3041C156.782 12.3075 156.78 12.3118 156.777 12.3166C156.775 12.3213 156.772 12.3253 156.77 12.3286C156.765 12.3352 156.762 12.3365 156.765 12.3347C156.768 12.3327 156.774 12.3292 156.782 12.3262C156.791 12.3233 156.798 12.3224 156.802 12.3223C156.805 12.3222 156.802 12.3227 156.794 12.3205C156.79 12.3194 156.785 12.3177 156.78 12.3155C156.775 12.3132 156.771 12.3108 156.768 12.3088C156.765 12.3067 156.765 12.306 156.767 12.3078C156.768 12.3095 156.774 12.315 156.782 12.3261L158.381 11.1243L159.98 9.92253C157.666 6.84534 152.769 8.49244 152.782 12.3401L154.782 12.3333ZM158.381 11.1243L156.782 12.3261L203.495 74.4677L205.094 73.2659L206.692 72.0642L159.98 9.92255L158.381 11.1243ZM205.094 73.2659L203.495 74.4676L203.494 74.4681V76.4681V78.4681C206.791 78.4681 208.675 74.7015 206.692 72.0642L205.094 73.2659ZM203.494 76.4681V74.4681H156.993V76.4681V78.4681H203.494V76.4681ZM156.993 76.4681V74.4681C157.018 74.4681 157.037 74.4687 157.049 74.4692C157.061 74.4697 157.068 74.4702 157.068 74.4701C157.067 74.4701 157.066 74.47 157.063 74.4698C157.061 74.4697 157.059 74.4696 157.057 74.4694C157.055 74.4692 157.052 74.469 157.049 74.4688C157.042 74.4684 157.034 74.4678 157.025 74.4672C157.015 74.4666 157.004 74.4659 156.992 74.4652L156.882 76.4622L156.772 78.4592C156.766 78.4589 156.764 78.4586 156.77 78.4591C156.773 78.4593 156.792 78.4606 156.807 78.4616C156.84 78.4638 156.91 78.4681 156.993 78.4681V76.4681ZM156.882 76.4622V74.4622H0V76.4622V78.4622H156.882V76.4622ZM0 76.4622H2V22.4622H0H-2V76.4622H0ZM0 22.4622V24.4622H154.816V22.4622V20.4622H0V22.4622ZM154.816 22.4622L156.816 22.4554L156.782 12.3265L154.782 12.3333L152.782 12.34L152.816 22.4689L154.816 22.4622Z" fill="black" mask="url(#path-1-inside-1_303_3473)"/>
<path d="M19.2939 57L22.4922 40.5327H26.0933L23.4321 54.2168H30.9517L30.4146 57H19.2939ZM33.4053 57L36.6035 40.5327H48.4199L47.8828 43.3159H39.6675L38.8984 47.271H46.3691L45.832 50.0542H38.3613L37.5435 54.2168H46.2593L45.7222 57H33.4053ZM58.7104 43.3159L56.0493 57H52.4482L55.1094 43.3159H50.1533L50.6904 40.5327H64.2036L63.6665 43.3159H58.7104ZM68.3174 46.4775L71.8452 38.8848H75.8125L70.5513 46.4775H68.3174ZM84.1865 57.2441C82.2741 57.2441 80.793 56.8413 79.7432 56.0356C78.7015 55.23 78.1562 54.0581 78.1074 52.52L81.6841 52.0684C81.7248 52.8333 81.9974 53.4396 82.502 53.8872C83.0065 54.3267 83.7756 54.5464 84.8091 54.5464C85.6147 54.5464 86.278 54.4528 86.7988 54.2656C87.3278 54.0703 87.7306 53.7773 88.0073 53.3867C88.284 52.988 88.4224 52.5526 88.4224 52.0806C88.4224 51.2179 87.633 50.5791 86.0542 50.1641C84.2394 49.7002 83.0065 49.2933 82.3555 48.9434C81.7044 48.5853 81.1999 48.154 80.8418 47.6494C80.4837 47.1449 80.3047 46.5426 80.3047 45.8428C80.3047 45.1185 80.4593 44.4186 80.7686 43.7432C81.0778 43.0596 81.5579 42.4533 82.209 41.9243C82.86 41.3953 83.6413 40.9884 84.5527 40.7036C85.4723 40.4188 86.4652 40.2764 87.5312 40.2764C89.3542 40.2764 90.7091 40.6385 91.5962 41.3628C92.4832 42.0789 92.9308 43.1938 92.939 44.7075L89.3745 45.0615C89.3094 43.5723 88.5078 42.8276 86.9697 42.8276C86.3105 42.8276 85.7531 42.9212 85.2974 43.1084C84.8416 43.2874 84.4958 43.556 84.2598 43.9141C84.0238 44.2721 83.9058 44.6506 83.9058 45.0493C83.9058 45.3748 83.9993 45.6475 84.1865 45.8672C84.3818 46.0869 84.6423 46.2782 84.9678 46.4409C85.3014 46.5955 85.985 46.8112 87.0186 47.0879C88.3939 47.4541 89.4111 47.8244 90.0703 48.1987C90.7376 48.5731 91.23 49.0207 91.5474 49.5415C91.8647 50.0542 92.0234 50.632 92.0234 51.2749C92.0234 52.3491 91.7061 53.3582 91.0713 54.3022C90.4365 55.2463 89.5251 55.9746 88.3369 56.4873C87.1569 56.9919 85.7734 57.2441 84.1865 57.2441ZM114.509 57.2441C112.751 57.2441 111.412 56.7355 110.493 55.7183C109.573 54.6929 109.113 53.2484 109.113 51.3848C109.113 50.0745 109.333 48.6463 109.772 47.1001C110.22 45.5457 110.81 44.2721 111.542 43.2793C112.275 42.2783 113.166 41.5296 114.216 41.0332C115.266 40.5286 116.474 40.2764 117.841 40.2764C119.298 40.2764 120.417 40.6507 121.198 41.3994C121.979 42.1481 122.443 43.2996 122.59 44.854L119.123 45.5132C118.993 43.91 118.395 43.1084 117.329 43.1084C116.376 43.1084 115.579 43.438 114.936 44.0972C114.301 44.7482 113.785 45.7939 113.386 47.2344C112.987 48.6748 112.788 49.9647 112.788 51.104C112.788 53.2769 113.61 54.3633 115.253 54.3633C115.701 54.3633 116.181 54.2778 116.694 54.1069C117.207 53.9279 117.63 53.7122 117.963 53.46L118.525 50.5913H115.18L115.693 47.9302H122.333L121.015 54.7417C118.72 56.41 116.551 57.2441 114.509 57.2441ZM129.279 57.2441C127.546 57.2441 126.232 56.7762 125.336 55.8403C124.449 54.8963 124.006 53.4925 124.006 51.6289C124.006 50.2943 124.213 48.8579 124.628 47.3198C125.052 45.7736 125.629 44.4837 126.362 43.4502C127.094 42.4085 127.981 41.6191 129.023 41.082C130.073 40.5449 131.257 40.2764 132.575 40.2764C134.3 40.2764 135.611 40.7362 136.506 41.6558C137.409 42.5754 137.861 43.9588 137.861 45.8062C137.861 47.1408 137.649 48.5853 137.226 50.1396C136.803 51.6859 136.217 52.988 135.468 54.0459C134.728 55.0957 133.837 55.8932 132.795 56.4385C131.753 56.9756 130.581 57.2441 129.279 57.2441ZM134.199 46.1113C134.199 44.1094 133.474 43.1084 132.026 43.1084C131.155 43.1084 130.402 43.4705 129.768 44.1948C129.141 44.9191 128.632 46.0055 128.242 47.4541C127.859 48.9027 127.668 50.1885 127.668 51.3115C127.668 53.3786 128.388 54.4121 129.829 54.4121C130.691 54.4121 131.44 54.0418 132.075 53.3013C132.709 52.5526 133.222 51.4539 133.613 50.0054C134.003 48.5487 134.199 47.2507 134.199 46.1113ZM146.76 51.7998H143.952L145.747 40.5327H149.335L146.76 51.7998ZM142.548 57L143.183 53.7041H146.699L146.064 57H142.548Z" fill="black"/>
<path d="M18 64.0679H153.12V66.5703H18V64.0679Z" fill="black"/>
</svg>
