<svg width="32" height="27" viewBox="0 0 32 27" fill="none" xmlns="http://www.w3.org/2000/svg">
<path d="M15.0898 25.8454L15.08 25.8404L15.0465 25.823C15.0181 25.8083 14.9775 25.787 14.9256 25.7594C14.8218 25.7042 14.6726 25.6236 14.4845 25.5188C14.1086 25.3092 13.5763 25.0019 12.9395 24.6057C11.6688 23.8149 9.96824 22.6609 8.26101 21.2115C4.92436 18.3788 1.21875 14.1277 1.21875 9.03486C1.21875 4.59733 4.87043 1 9.375 1C11.9386 1 14.2242 2.16484 15.7188 3.98464C17.2133 2.16484 19.4989 1 22.0625 1C26.5671 1 30.2188 4.59733 30.2188 9.03486C30.2188 14.1277 26.5131 18.3788 23.1765 21.2115C21.4693 22.6609 19.7687 23.8149 18.498 24.6057C17.8612 25.0019 17.3289 25.3092 16.953 25.5188C16.7649 25.6236 16.6157 25.7042 16.5119 25.7594C16.46 25.787 16.4194 25.8083 16.391 25.823L16.3575 25.8404L16.3477 25.8454L16.3446 25.847C15.9544 26.0509 15.4831 26.0509 15.094 25.8475L15.0898 25.8454Z" fill="white" stroke="black" stroke-width="2"/>
</svg>
