<svg width="20" height="20" viewBox="0 0 20 20" fill="none" xmlns="http://www.w3.org/2000/svg">
<path fill-rule="evenodd" clip-rule="evenodd" d="M8.25 1.75C4.52208 1.75 1.5 4.77208 1.5 8.5C1.5 12.2279 4.52208 15.25 8.25 15.25C10.1142 15.25 11.8006 14.4953 13.023 13.273C14.2453 12.0506 15 10.3642 15 8.5C15 4.77208 11.9779 1.75 8.25 1.75ZM0 8.5C0 3.94365 3.69365 0.25 8.25 0.25C12.8063 0.25 16.5 3.94365 16.5 8.5C16.5 10.5078 15.782 12.3491 14.5899 13.7793L19.2803 18.4697C19.5732 18.7626 19.5732 19.2374 19.2803 19.5303C18.9874 19.8232 18.5126 19.8232 18.2197 19.5303L13.5293 14.8399C12.0991 16.032 10.2578 16.75 8.25 16.75C3.69365 16.75 0 13.0563 0 8.5Z" fill="#313131"/>
</svg>
