<svg width="38" height="35" viewBox="0 0 38 35" fill="none" xmlns="http://www.w3.org/2000/svg">
<path d="M19.875 4.67249V5.54704C19.875 6.06177 20.1036 6.5499 20.4991 6.87942L22.1465 8.25229C22.8274 8.81972 22.9709 9.80924 22.4793 10.5467L21.6914 11.7285C21.2636 12.3703 20.634 12.8512 19.9022 13.0951L19.6829 13.1682C18.615 13.5242 18.1779 14.7981 18.8023 15.7347C19.3719 16.5891 19.0638 17.7494 18.1453 18.2086L14.0938 20.2344L14.7465 21.8662C15.0311 22.5777 14.7228 23.3886 14.0374 23.7313C13.4005 24.0498 12.6269 23.8672 12.1997 23.2975L11.1525 21.9013C10.3789 20.8698 8.79034 21.0131 8.21374 22.1663L7.15625 24.2812L6.21281 24.5171M19.875 4.67249C19.4937 4.64104 19.1081 4.625 18.7188 4.625C11.0558 4.625 4.84375 10.837 4.84375 18.5C4.84375 20.6559 5.33544 22.6969 6.21281 24.5171M19.875 4.67249C26.997 5.26004 32.5938 11.2264 32.5938 18.5C32.5938 21.3971 31.7058 24.0868 30.1873 26.3119M30.1873 26.3119L29.9156 25.4968C29.4435 24.0804 28.1179 23.125 26.6249 23.125H25.6562L25.1562 22.6249C24.736 22.2048 24.1662 21.9688 23.5721 21.9688C22.7235 21.9688 21.9478 22.4482 21.5683 23.2071L21.512 23.3197C21.2057 23.9324 20.6562 24.3884 19.9976 24.5766L18.4732 25.0121C17.6251 25.2544 17.0939 26.0948 17.2389 26.9649L17.3514 27.6398C17.4732 28.3706 18.1055 28.9062 18.8464 28.9062C20.1512 28.9062 21.3096 29.7412 21.7221 30.9789L22.0531 31.9718M30.1873 26.3119C28.2917 29.0894 25.4135 31.1428 22.0531 31.9718M22.0531 31.9718C20.985 32.2352 19.8682 32.375 18.7188 32.375C13.2117 32.375 8.45397 29.1666 6.21281 24.5171M24.4996 13.875C24.4996 15.2564 23.894 16.4963 22.9339 17.3438" stroke="black" stroke-width="2" stroke-linecap="round" stroke-linejoin="round"/>
</svg>
